<svg width="91" height="72" viewBox="0 0 91 72" fill="none" xmlns="http://www.w3.org/2000/svg">
<g id="undraw_learning_sketching_nd4f 1" clip-path="url(#clip0_27_68)">
<path id="Vector" d="M30.1967 15.771C30.2101 15.7732 30.23 15.7766 30.2542 15.7806C30.7278 15.8584 33.5908 16.2969 36.4772 15.2053C37.7 14.7428 37.2829 14.6276 40.0063 13.0198C43.1992 11.1348 44.0186 11.148 44.2564 10.269C44.7311 8.51396 42.196 5.75493 40.518 5.93659C40.0762 5.98442 39.6031 6.2459 38.8672 6.0686C38.7056 6.02965 37.9978 5.85912 37.6528 5.2775C37.345 4.75866 37.6057 4.38438 37.4819 3.95885C37.157 2.84189 34.4486 2.28447 32.0741 2.67832C30.7083 2.90485 29.6461 3.52328 27.5773 4.7509C23.9765 6.88761 22.1762 7.95596 21.7715 9.5928C21.388 11.1442 22.3085 11.8127 21.639 13.4735C21.0157 15.0198 20.0256 14.9165 19.6849 16.1675C19.1366 18.1805 21.1715 20.3898 22.0192 21.3101C22.9486 22.3191 23.8374 22.8729 25.0174 23.6081C26.4985 24.5309 27.239 24.9923 28.1293 24.9453C29.7435 24.8602 34.5402 25.1499 34.6028 23.8237C34.6262 23.3267 40.4437 23.7337 37.5792 18.3827C37.2278 17.7264 30.3447 18.4274 30.2539 18.0504" fill="#2F2E41"/>
<path id="Vector_2" d="M27.4108 19.1951L22.4632 26.5221L36.6654 29.3735L35.7608 20.2004L27.4108 19.1951Z" fill="#FFB6B6"/>
<path id="Vector_3" opacity="0.1" d="M27.4108 19.1951L22.4632 26.5221L36.6654 29.3735L35.7608 20.2004L27.4108 19.1951Z" fill="black"/>
<path id="Vector_4" d="M37.7292 24.6211L22.4113 23.9874L15.6033 27.6838L15.9225 51.446L8.79538 64.8584L44.7499 58.0994L41.9841 47.9608L43.2606 26.6277L37.7292 24.6211Z" fill="#0081DE"/>
<path id="Vector_5" d="M90.5875 70.7834C91.0765 70.0181 91.1343 69.0725 90.7419 68.254L84.9119 56.0924C84.4768 55.1847 83.5414 54.5983 82.5289 54.5983H8.89091C7.90662 54.5983 7.01109 55.1359 6.55394 56.0013L0.304924 67.8277C-0.127037 68.6452 -0.098587 69.6053 0.380928 70.3962C0.860451 71.1871 1.70178 71.6614 2.63152 71.665L88.3486 72H88.3593C89.268 72 90.1004 71.5458 90.5875 70.7834Z" fill="white"/>
<path id="Vector_6" d="M90.5875 70.7834C91.0765 70.0181 91.1343 69.0725 90.7419 68.254L84.9119 56.0924C84.4768 55.1847 83.5414 54.5983 82.5289 54.5983H8.89091C7.90662 54.5983 7.01109 55.1359 6.55394 56.0013L0.304924 67.8277C-0.127037 68.6452 -0.098587 69.6053 0.380928 70.3962C0.860451 71.1871 1.70178 71.6614 2.63152 71.665L88.3486 72H88.3593C89.268 72 90.1004 71.5458 90.5875 70.7834ZM82.5289 54.8733C83.4351 54.8733 84.2723 55.3983 84.6618 56.2106L90.4918 68.3722C90.843 69.1047 90.7913 69.951 90.3536 70.6362C89.9176 71.3185 89.1727 71.725 88.3593 71.725H88.3497L2.6326 71.39C1.80047 71.3868 1.04742 70.9622 0.618263 70.2543C0.189056 69.5465 0.16362 68.6871 0.550179 67.9555L6.7992 56.1289C7.20844 55.3545 8.0099 54.8733 8.89091 54.8733H82.5289Z" fill="#3F3D56"/>
<path id="Vector_7" d="M15.7467 67.3507L46.1351 65.2765C46.5838 65.2459 46.9416 64.9455 47.0467 64.5114C47.1518 64.0773 46.9706 63.6484 46.585 63.4187L39.8652 59.4158C39.6946 59.3141 39.4989 59.2647 39.3004 59.2742L13.0147 60.4604C12.6672 60.476 12.3568 60.6644 12.1844 60.9644C12.012 61.2643 12.0065 61.6255 12.1697 61.9305L14.7868 66.8214C14.9624 67.1497 15.3068 67.3531 15.6776 67.3531C15.7005 67.3531 15.7236 67.3523 15.7467 67.3507Z" fill="#3F3D56"/>
<path id="Vector_8" d="M46.3987 64.0663L16.1352 66.1257L13.7418 61.0036L39.6914 59.9933L46.3987 64.0663Z" fill="white"/>
<path id="Vector_9" d="M31.5063 21.6632C26.4838 21.6632 22.4122 17.6208 22.4122 12.6344C22.4122 7.64792 26.4838 3.60559 31.5063 3.60559C36.5289 3.60559 40.6005 7.64792 40.6005 12.6344C40.6005 17.6208 36.5289 21.6632 31.5063 21.6632Z" fill="#FFB6B6"/>
<path id="Vector_10" d="M28.5771 13.2187C28.5904 13.2209 28.6104 13.2243 28.6346 13.2283C29.1081 13.3061 31.9711 13.7446 34.8576 12.653C36.0804 12.1905 35.6633 12.0753 38.3867 10.4675C41.5796 8.58249 42.399 8.59566 42.6367 7.71673C43.1115 5.96165 40.5764 3.20263 38.8984 3.38428C38.4566 3.43211 37.9835 3.6936 37.2476 3.51629C37.0859 3.47734 36.3782 3.30682 36.0332 2.7252C35.7254 2.20635 35.9861 1.83207 35.8623 1.40654C35.5374 0.289588 32.829 -0.267832 30.4544 0.126015C29.0887 0.352543 28.0264 0.970974 25.9577 2.19859C22.3569 4.3353 20.5565 5.40365 20.1519 7.04049C19.7684 8.59191 20.6889 9.26041 20.0194 10.9212C19.396 12.4675 18.406 12.3642 18.0653 13.6152C17.517 15.6282 19.5519 17.8375 20.3996 18.7578C21.329 19.7668 22.2178 20.3206 23.3978 21.0558C24.8788 21.9786 25.6193 22.44 26.5097 22.393C28.1239 22.3079 29.7295 20.8555 29.792 19.5293C29.8155 19.0323 29.6066 18.8833 29.0898 17.1746C28.8744 16.4628 28.7251 15.8751 28.6342 15.4981" fill="#2F2E41"/>
<path id="Vector_11" d="M22.3439 61.5927C21.7589 61.6157 21.3136 62.1361 21.2813 62.7C21.2478 63.2852 21.6577 63.8244 22.1501 64.103C22.727 64.4295 23.447 64.4818 24.0965 64.4257C24.6808 64.3751 25.3165 64.1947 25.6924 63.7157C26.0088 63.3127 26.1251 62.7038 25.8561 62.2463C25.5893 61.7928 25.022 61.6675 24.5475 61.8496C24.0453 62.0422 23.7296 62.4956 23.7264 63.0315C23.7229 63.6255 24.0684 64.1743 24.5533 64.5027C25.0762 64.8569 25.7344 64.9708 26.3569 64.9694C27.0351 64.9679 27.7104 64.8265 28.3344 64.5641C28.919 64.3182 29.5031 63.9637 29.9211 63.4819C30.3129 63.0302 30.5475 62.4035 30.33 61.8176C30.1516 61.3372 29.7009 61.0426 29.1847 61.0833C28.7121 61.1206 28.2341 61.3928 28.0243 61.8264C27.7876 62.3155 27.8939 62.9024 28.1951 63.3397C28.5429 63.8446 29.0926 64.1283 29.703 64.1694C30.3527 64.213 30.9961 63.9838 31.5305 63.6295C32.0254 63.3014 32.4603 62.8814 32.9916 62.6085C33.2473 62.4771 33.5255 62.3936 33.815 62.394C34.1837 62.3944 34.5381 62.5146 34.8965 62.5843C35.2004 62.6435 35.5135 62.6779 35.8134 62.5815C36.07 62.499 36.3101 62.3478 36.4717 62.131C36.6246 61.9259 36.6783 61.6689 36.5917 61.4254C36.5237 61.2345 36.2153 61.3167 36.2839 61.5097C36.4423 61.9549 35.899 62.2821 35.5187 62.323C35.2302 62.354 34.9326 62.2712 34.6542 62.2066C34.3641 62.1392 34.0675 62.0703 33.7676 62.0776C32.705 62.1036 32.0026 63.0054 31.1458 63.4946C30.2451 64.009 28.9261 64.0448 28.3745 63.0227C28.1741 62.6514 28.1328 62.158 28.408 61.8111C28.6373 61.5222 29.0446 61.3493 29.4137 61.4053C29.8773 61.4756 30.1082 61.914 30.0914 62.3498C30.0708 62.8832 29.6963 63.3165 29.297 63.636C28.408 64.3471 27.2292 64.7093 26.0922 64.6457C25.5588 64.6159 24.9918 64.478 24.5774 64.1254C24.2193 63.8207 23.9749 63.3252 24.061 62.8506C24.1354 62.4399 24.4824 62.1283 24.9017 62.087C25.3305 62.0447 25.6657 62.347 25.6848 62.7723C25.7064 63.2507 25.4201 63.65 25.0052 63.8678C24.5352 64.1147 23.9657 64.1452 23.445 64.1184C22.8921 64.0898 22.3158 63.9451 21.9289 63.5271C21.5989 63.1705 21.4738 62.6415 21.7779 62.229C21.9121 62.0469 22.114 61.9186 22.3439 61.9095C22.5486 61.9015 22.5497 61.5846 22.3439 61.5927Z" fill="#0081DE"/>
<path id="Vector_12" d="M36.8883 61.2533L36.7256 60.2545L27.6972 43.1226C27.5476 42.8388 27.1933 42.7287 26.9076 42.8772C26.6217 43.0256 26.5109 43.3774 26.6604 43.6611L35.6848 60.7854L36.4226 61.4952C36.5098 61.5787 36.6357 61.5967 36.7432 61.5408C36.8506 61.485 36.9075 61.3721 36.8883 61.2533Z" fill="#3F3D56"/>
<path id="Vector_13" d="M30.7342 50.3536C29.7156 50.544 28.7578 50.9738 27.9408 51.607L27.8949 51.6169L27.8856 51.5714L18.0458 53.1016L18.7586 40.1078L11.3013 36.0527L13.0639 58.0166C13.4456 59.4193 14.9119 60.2385 16.3177 59.8346L28.8434 56.2576L28.8121 56.1046L28.8559 56.0929C29.8569 56.3609 30.9081 56.387 31.9213 56.1689C34.4633 55.6582 36.2584 53.942 35.9308 52.336C35.6031 50.7299 33.2771 49.8424 30.7342 50.3536Z" fill="#FFB6B6"/>
<path id="Vector_14" d="M24.0068 30.0072L15.6033 27.6838C15.6033 27.6838 11.1887 30.9049 10.6569 34.39C10.5936 34.8045 10.4181 54.1122 10.6037 54.6143C11.9782 58.3337 19.5391 52.3965 19.5391 52.3965L24.0068 30.0072Z" fill="#0081DE"/>
<path id="Vector_15" d="M60.4575 64.7094L61.3287 63.968C61.4584 63.8576 61.6162 63.7845 61.7848 63.7565L81.1963 60.5445C81.6394 60.4712 81.9667 60.1535 82.0505 59.7154C82.1343 59.2773 81.9471 58.8626 81.5619 58.6331L74.6367 54.5079C74.4053 54.37 74.1329 54.3266 73.8694 54.3857L49.2572 59.9063C48.7788 60.0135 48.4594 60.3974 48.4437 60.8842C48.4281 61.371 48.722 61.7744 49.1927 61.9118L59.4835 64.9168C59.5811 64.9453 59.6807 64.9593 59.7794 64.9593C60.025 64.9593 60.2654 64.8729 60.4575 64.7094Z" fill="#3F3D56"/>
<path id="Vector_16" d="M69.8057 40.7529C68.8435 41.1355 67.9876 41.7413 67.3096 42.5196L67.2664 42.538L67.2484 42.4952L57.8931 45.8877L47.9043 29.8306L42.3821 33.2284L53.9639 51.6673C54.612 52.9701 56.2102 53.492 57.5107 52.8254L69.1019 46.9087L69.0413 46.7645L69.082 46.7446C70.1164 46.8152 71.1527 46.6388 72.1043 46.2301C74.4986 45.2404 75.9251 43.2117 75.2905 41.699C74.6558 40.1863 72.2007 39.7626 69.8057 40.7529Z" fill="#FFB6B6"/>
<path id="Vector_17" d="M37.1889 32.7294L41.607 26.17C41.607 26.17 46.8645 27.2031 49.0303 29.9963C49.301 30.3454 58.6001 43.735 58.66 44.3193C59.0793 48.4097 48.3918 50.3262 48.3918 50.3262L37.1889 32.7294Z" fill="#0081DE"/>
<path id="Vector_18" d="M60.9384 64.9064L83.1899 61.853C83.9346 61.7509 84.5493 61.2211 84.7559 60.5034L89.8665 42.7449C90.0397 42.143 89.9104 41.5198 89.5118 41.0348C89.1132 40.5499 88.5243 40.2993 87.8955 40.3469L65.477 42.0522C64.666 42.1138 63.9851 42.6809 63.7827 43.463L58.8391 62.5697C58.6813 63.1795 58.8391 63.8239 59.2611 64.2937C59.6246 64.6983 60.1399 64.9243 60.6771 64.9243C60.7638 64.9243 60.8511 64.9184 60.9384 64.9064Z" fill="#3F3D56"/>
<path id="Vector_19" d="M65.8982 28.5321C65.7682 28.6741 65.2962 28.5294 64.3575 28.2342C63.644 28.0098 63.5341 27.9282 63.4662 27.8696C63.2276 27.6638 63.1651 27.4473 62.9287 26.4912C62.5045 24.775 62.4914 24.6046 62.2735 24.2404C62.1985 24.115 62.0091 23.8158 62.0553 23.7787C62.1027 23.7406 62.3078 24.0523 62.6868 24.17C63.0562 24.2848 63.2224 24.101 63.5378 24.1478C63.9454 24.2083 64.1878 24.5927 64.5679 25.2149C64.9046 25.766 64.947 25.9877 65.419 27.0825C65.5527 27.3927 65.6604 27.6327 65.743 27.8224C66.6697 28.6812 67.5889 29.5512 68.4996 30.4288C68.4821 30.4022 68.4656 30.377 68.4512 30.3552C68.0478 29.7402 67.993 29.4105 67.9988 29.1635C68.0083 28.7632 68.2008 28.4584 68.5855 27.865C68.9625 27.2836 69.3196 26.8999 69.75 26.4421C70.3141 25.842 70.5961 25.5419 70.7084 25.5616C71.5107 25.7026 71.7252 31.1259 70.7158 32.0958C70.8575 32.1963 70.9748 32.3016 71.0597 32.4051C71.9237 31.4527 73.4039 30.3885 75.0436 30.2575C76.0545 30.1767 76.6124 30.4917 76.7859 30.5999C77.5877 31.0998 78.0645 32.1006 77.825 32.3829C77.6017 32.6463 76.9569 32.0477 75.6931 32.0806C74.8112 32.1036 74.1224 32.4213 73.7135 32.6098C72.8556 33.0054 72.5418 33.3943 71.9093 33.6607C72.2058 33.9033 72.4407 34.206 72.5882 34.4884C72.6393 34.5407 72.6902 34.5933 72.7413 34.6456C73.3939 34.2805 74.1289 34.0126 74.8992 33.9511C75.9101 33.8703 76.468 34.1852 76.6415 34.2934C77.1819 34.6304 77.5735 35.1942 77.6989 35.6129C77.7808 35.6293 77.8566 35.6479 77.926 35.668C78.1709 35.1184 78.9 34.5388 79.5778 34.2466C80.7446 33.7438 82.2603 33.8771 82.4225 34.3553C82.4276 34.3705 82.4289 34.3855 82.4312 34.4006C82.3033 33.376 82.1297 32.3586 81.9127 31.3486C81.9053 31.3774 81.8961 31.4066 81.8838 31.4373C81.5957 32.1555 80.8174 32.8449 79.7565 33.2025C78.9238 33.4832 78.575 33.3378 78.4864 33.2971C78.4018 33.2583 78.0362 33.1025 77.9467 32.7928C77.7806 32.2185 78.7975 30.5212 79.439 31.0905C81.4999 32.9196 81.7827 31.4385 81.8774 31.1892C81.7021 30.3907 81.5005 29.5968 81.2743 28.8073C81.2704 28.8122 81.267 28.8169 81.2629 28.8218C80.8127 29.3639 79.9461 29.7459 78.9278 29.7628C78.1286 29.776 77.8675 29.5539 77.8022 29.4943C77.7398 29.4373 77.467 29.2017 77.4762 28.9089C77.4932 28.3661 78.4659 27.924 79.2441 27.8473C79.9612 27.7767 80.7335 27.9946 81.1165 28.2707C80.9384 27.6795 80.7468 27.0909 80.5425 26.5049C80.0191 26.7171 79.2777 26.6886 78.5494 26.3654C77.9488 26.0988 77.832 25.8429 77.8042 25.7758C77.7777 25.7118 77.657 25.4417 77.7666 25.2266C77.9697 24.8277 78.8501 24.8344 79.4573 25.0464C79.7074 25.1338 79.9451 25.2681 80.1488 25.4199C79.7867 24.4594 79.3919 23.5057 78.9673 22.559L79.3928 22.4534C79.9352 23.6627 80.408 24.8878 80.8144 26.1265C80.865 25.7632 80.9916 25.3762 81.1583 25.0618C81.6486 24.1373 82.6958 23.4437 83.0499 23.6687C83.1207 23.7138 83.1506 23.7871 83.1775 23.8743C83.3946 24.5767 83.2311 25.5473 82.6594 26.439C82.2107 27.1389 81.8651 27.2372 81.7751 27.2594C81.6991 27.2781 81.4057 27.3586 81.1645 27.255C81.3267 27.8068 81.4767 28.361 81.6134 28.9177C81.778 28.512 82.1023 28.0798 82.4453 27.7809C83.2362 27.0917 84.464 26.8159 84.7137 27.1518C84.7636 27.219 84.765 27.298 84.7587 27.3891C84.7084 28.1221 84.206 28.9704 83.3509 29.6001C82.6797 30.0943 82.3216 30.0633 82.2295 30.0521C82.1753 30.0455 82.0116 30.0293 81.8537 29.9585C82.0002 30.6349 82.1283 31.3145 82.2391 31.9971C82.4606 31.2335 83.2129 30.281 83.9229 30.584C85.1829 31.1218 86.6639 30.2958 86.8269 30.657C86.8693 30.7509 86.8342 30.8478 86.7936 30.953C86.4672 31.7992 85.5657 32.6191 84.3278 33.0545C83.3563 33.3962 82.9452 33.231 82.8408 33.1847C82.7715 33.1541 82.5431 33.0593 82.3729 32.8835C82.4952 33.7605 82.589 34.642 82.6551 35.5273C82.9178 34.9579 83.6577 34.3579 84.3504 34.0486C85.5654 33.506 87.1546 33.6249 87.3311 34.1235C87.3664 34.2232 87.3385 34.3194 87.2969 34.4273C86.9618 35.2959 86.0365 36.1374 84.766 36.5843C83.7688 36.935 83.3469 36.7655 83.2397 36.718C83.1613 36.6833 82.8847 36.5685 82.7083 36.3506C82.7309 36.7599 82.7483 37.1699 82.7593 37.5806C82.7625 37.6976 82.7643 37.8146 82.7666 37.9316C82.7809 37.9546 82.7934 37.9781 82.8017 38.0026C82.8358 38.103 82.8126 38.1995 82.7726 38.305C82.7735 38.3793 82.774 38.4536 82.7745 38.5279C82.9968 38.3278 83.262 38.027 83.5809 37.5983C83.8687 37.2116 84.142 37.4954 84.3176 37.8247C84.5928 37.7638 84.8554 37.8015 85.0618 37.993C86.4464 39.2771 87.9993 38.5958 88.0213 38.9787C88.0276 39.0892 87.968 39.177 87.8929 39.2723C87.2883 40.039 86.1016 40.5984 84.6916 40.6573C83.5851 40.7036 83.2155 40.405 83.1229 40.3247C83.0904 40.2965 83.0175 40.2356 82.9386 40.15C82.8752 40.2002 82.8136 40.2458 82.7517 40.2874C82.7274 41.0224 82.6838 41.7566 82.6193 42.4895C82.6717 42.4942 82.7219 42.5027 82.7593 42.5065C83.2953 42.5608 83.4759 41.8428 84.2856 41.5805C84.5545 41.4934 85.0726 41.3983 85.3456 41.5805C85.3849 41.6067 85.519 41.7054 85.7271 41.791C85.8502 41.8415 85.9442 41.865 85.9815 41.8751C86.3137 41.9653 86.6214 42.2129 86.8295 42.3802C87.2205 42.6948 87.416 42.8521 87.5078 43.1379C87.5367 43.2278 87.618 43.4808 87.5078 43.7272C87.4558 43.8436 87.335 44.0168 86.8719 44.1902C86.5966 44.2933 85.7938 44.5939 84.8368 44.2744C84.6189 44.2017 84.7852 44.2277 83.9465 43.8114C83.2866 43.4838 82.9006 43.3273 82.8441 43.0116C82.8243 42.9007 82.8443 42.7653 82.7593 42.717C82.7121 42.6901 82.655 42.7032 82.5981 42.7235C82.5425 43.3127 82.4732 43.901 82.3892 44.488H83.1443C84.1469 44.488 85.0464 45.042 85.4917 45.934L88.3162 51.5912C88.4945 51.9483 88.5887 52.3477 88.5887 52.7463V67.2934C88.5887 68.7277 87.4134 69.8945 85.9687 69.8945H79.376C77.9313 69.8945 76.756 68.7277 76.756 67.2934V53.8984C76.756 53.5718 76.8169 53.2521 76.9371 52.9481L79.629 46.1388C79.9555 45.313 80.6626 44.7289 81.5079 44.548C81.2368 44.2289 80.9652 43.9101 80.6915 43.5922C80.347 43.7573 79.9679 43.8928 79.5603 43.9879C78.4822 44.2396 78.0627 44.0152 77.9566 43.9536C77.8553 43.8947 77.416 43.6554 77.3416 43.2563C77.3336 43.2135 77.3305 43.1703 77.3311 43.1267C76.2266 44.018 75.6505 44.4573 75.2296 44.3108C74.8678 44.1849 74.6612 43.7722 74.5429 43.4018C74.4193 43.4189 74.2883 43.4363 74.1487 43.4548C72.6361 43.6553 71.8738 43.7483 71.5823 43.3926C71.1788 42.9004 71.5618 41.9512 71.6673 41.6896C71.8968 41.121 72.2497 40.775 72.469 40.5646C72.7537 40.2912 73.5652 39.5123 74.8428 39.4084C75.1205 39.3858 75.37 39.4031 75.6242 39.4559C75.7127 39.3755 75.8062 39.2967 75.9091 39.2218C76.1052 39.0792 76.2989 38.9736 76.5073 38.891C76.1876 38.5432 75.8669 38.1965 75.5448 37.8512C75.4938 37.8743 75.4454 37.8965 75.4009 37.917C74.3456 38.4037 74.1137 38.8802 73.0988 39.131C72.6384 39.2448 72.1171 39.3737 71.9881 39.18C71.7588 38.8358 72.7319 37.4199 74.2356 36.4618C74.1342 36.3553 74.0326 36.249 73.931 36.1427C73.7935 36.2 73.6723 36.2558 73.5691 36.3034C72.5138 36.79 72.2819 37.2665 71.267 37.5174C70.8066 37.6312 70.2853 37.76 70.1562 37.5663C69.9517 37.2593 70.7044 36.0986 71.937 35.1714C71.5984 35.0647 71.1494 34.9464 70.568 34.9615C69.6862 34.9845 68.9974 35.3022 68.5884 35.4907C67.5331 35.9774 67.3012 36.4539 66.2863 36.7047C65.8259 36.8185 65.3046 36.9474 65.1756 36.7537C64.8348 36.2421 67.1496 33.3597 69.9186 33.1384C70.1335 33.1212 70.3267 33.1227 70.5014 33.1355C70.5255 33.0958 70.5517 33.0551 70.5793 33.0136C69.6424 33.0435 67.8127 32.7776 66.2554 33.8631C65.8064 34.1761 64.934 34.9124 63.4741 35.5173C63.0075 35.7107 62.7729 35.8057 62.7082 35.7263C62.4769 35.4421 64.4003 33.1032 67.1064 31.951C68.1792 31.4942 68.8421 31.451 69.3136 31.5202C69.241 31.4379 69.1701 31.353 69.102 31.2678C68.0483 30.2418 66.9813 29.2265 65.9047 28.2249C65.9568 28.3849 65.9551 28.47 65.8982 28.5321ZM79.4203 41.302C80.6104 40.9194 82.0515 41.1249 82.4273 41.5602C82.4803 41.1744 82.5264 40.7881 82.5643 40.4011C82.0221 40.7017 81.4563 40.7823 80.3831 40.9245C79.926 40.9851 79.5385 41.0356 79.2107 41.0671C79.1667 41.1856 79.1198 41.2922 79.0653 41.3942C79.059 41.406 79.0522 41.4173 79.0457 41.429L79.0553 41.4397C79.1775 41.3871 79.2999 41.3406 79.4203 41.302ZM82.5823 36.1197C82.5484 36.0079 82.5477 35.8889 82.5736 35.7661C82.5366 35.3215 82.4903 34.8781 82.4356 34.4362C82.4371 34.5038 82.4154 34.5715 82.386 34.6449C82.0551 35.4699 81.1611 36.2618 79.9425 36.6726C79.7152 36.7492 79.5202 36.7975 79.3522 36.8271C79.4261 36.9549 79.4827 37.0795 79.5203 37.1947C79.9357 36.8634 80.4705 36.6224 81.0772 36.8781C81.2424 36.9476 81.3404 37.2021 81.4255 37.5064C81.9861 37.516 82.4545 37.6321 82.6775 37.8286C82.6763 37.7466 82.6768 37.6649 82.6745 37.5828C82.662 37.1151 82.6388 36.6489 82.606 36.1841C82.5971 36.1633 82.5891 36.1419 82.5823 36.1197ZM82.676 38.5255C82.6518 38.5747 82.6253 38.6235 82.5979 38.6722C82.6228 38.654 82.6483 38.6344 82.6745 38.6132C82.6752 38.584 82.6754 38.5547 82.676 38.5255ZM81.7189 44.5121C81.7842 44.5035 81.85 44.4974 81.9165 44.4936C82.0699 43.7374 82.2116 42.9816 82.3302 42.2244C82.0184 42.7157 81.5094 43.1656 80.861 43.5067C81.1487 43.841 81.434 44.1764 81.7189 44.5121ZM76.6957 38.8241C77.1016 38.6947 77.5778 38.6327 78.237 38.5567C78.404 38.3262 78.5762 38.1564 78.7035 38.0342C78.7724 37.9681 78.8783 37.8368 79.0154 37.6832C78.6601 37.57 78.1298 37.3683 77.3805 37.3878C76.6995 37.4056 76.1344 37.5989 75.7236 37.773C76.049 38.122 76.3727 38.4725 76.6957 38.8241ZM74.3955 36.3628C74.7943 36.1235 75.2268 35.9187 75.6822 35.7747C75.6379 35.7743 75.5946 35.773 75.5487 35.7742C74.9841 35.7889 74.4991 35.9245 74.1155 36.0696C74.2089 36.1673 74.3023 36.2649 74.3955 36.3628Z" fill="#CCCCCC"/>
</g>
<defs>
<clipPath id="clip0_27_68">
<rect width="91" height="72" fill="white" transform="matrix(-1 0 0 1 91 0)"/>
</clipPath>
</defs>
</svg>
